<svg width="267" height="62" viewBox="0 0 267 62" fill="none" xmlns="http://www.w3.org/2000/svg">
<rect width="267" height="62" rx="23" fill="#213951"/>
<path d="M96.8578 26.912C98.8898 26.912 100.57 27.408 101.898 28.4C103.226 29.376 104.162 30.728 104.706 32.456H102.93C102.482 31.24 101.738 30.272 100.698 29.552C99.6578 28.832 98.3698 28.472 96.8338 28.472C95.6658 28.472 94.6018 28.76 93.6418 29.336C92.6978 29.912 91.9538 30.736 91.4098 31.808C90.8658 32.88 90.5938 34.128 90.5938 35.552C90.5938 36.976 90.8658 38.224 91.4098 39.296C91.9538 40.352 92.6978 41.168 93.6418 41.744C94.6018 42.32 95.6658 42.608 96.8338 42.608C98.3698 42.608 99.6578 42.248 100.698 41.528C101.738 40.808 102.482 39.84 102.93 38.624H104.706C104.162 40.352 103.226 41.712 101.898 42.704C100.57 43.68 98.8898 44.168 96.8578 44.168C95.3058 44.168 93.9218 43.8 92.7058 43.064C91.4898 42.328 90.5458 41.312 89.8738 40.016C89.2018 38.704 88.8658 37.216 88.8658 35.552C88.8658 33.872 89.2018 32.376 89.8738 31.064C90.5458 29.752 91.4898 28.736 92.7058 28.016C93.9218 27.28 95.3058 26.912 96.8578 26.912ZM113.697 30.728C114.945 30.728 116.057 31 117.033 31.544C118.025 32.072 118.801 32.848 119.361 33.872C119.921 34.88 120.201 36.072 120.201 37.448C120.201 38.824 119.921 40.016 119.361 41.024C118.801 42.032 118.025 42.808 117.033 43.352C116.057 43.896 114.945 44.168 113.697 44.168C112.449 44.168 111.329 43.896 110.337 43.352C109.345 42.808 108.561 42.032 107.985 41.024C107.425 40 107.145 38.808 107.145 37.448C107.145 36.072 107.425 34.88 107.985 33.872C108.561 32.848 109.345 32.072 110.337 31.544C111.329 31 112.449 30.728 113.697 30.728ZM113.697 32.192C112.833 32.192 112.033 32.384 111.297 32.768C110.561 33.152 109.969 33.744 109.521 34.544C109.073 35.328 108.849 36.296 108.849 37.448C108.849 38.6 109.073 39.568 109.521 40.352C109.969 41.136 110.561 41.72 111.297 42.104C112.033 42.488 112.833 42.68 113.697 42.68C114.545 42.68 115.329 42.488 116.049 42.104C116.785 41.72 117.377 41.136 117.825 40.352C118.273 39.568 118.497 38.6 118.497 37.448C118.497 36.296 118.273 35.328 117.825 34.544C117.377 33.744 116.785 33.152 116.049 32.768C115.329 32.384 114.545 32.192 113.697 32.192ZM129.767 30.656C131.287 30.656 132.519 31.144 133.463 32.12C134.423 33.08 134.903 34.496 134.903 36.368V44H133.247V36.488C133.247 35.064 132.887 33.976 132.167 33.224C131.447 32.456 130.463 32.072 129.215 32.072C127.903 32.072 126.855 32.496 126.071 33.344C125.303 34.176 124.919 35.408 124.919 37.04V44H123.215V30.896H124.919V34.112C125.255 32.992 125.863 32.136 126.743 31.544C127.623 30.952 128.631 30.656 129.767 30.656ZM143.969 27.416C142.753 27.4 141.897 27.624 141.401 28.088C140.921 28.536 140.681 29.296 140.681 30.368V30.896H143.969V32.384H140.681V44H139.001V32.384H137.057V30.896H139.001V30.248C139.001 28.776 139.401 27.672 140.201 26.936C141.001 26.2 142.257 25.864 143.969 25.928V27.416ZM146.104 27.008C146.104 26.656 146.216 26.376 146.44 26.168C146.68 25.96 146.984 25.856 147.352 25.856C147.72 25.856 148.016 25.96 148.24 26.168C148.464 26.376 148.576 26.656 148.576 27.008C148.576 27.344 148.464 27.616 148.24 27.824C148.016 28.032 147.72 28.136 147.352 28.136C146.984 28.136 146.68 28.032 146.44 27.824C146.216 27.616 146.104 27.344 146.104 27.008ZM148.192 30.896V44H146.488V30.896H148.192ZM153.536 33.608C153.92 32.664 154.536 31.936 155.384 31.424C156.232 30.912 157.264 30.656 158.48 30.656V32.48H157.928C156.664 32.48 155.616 32.824 154.784 33.512C153.952 34.184 153.536 35.288 153.536 36.824V44H151.832V30.896H153.536V33.608ZM176.627 30.656C178.131 30.656 179.347 31.144 180.275 32.12C181.219 33.08 181.691 34.496 181.691 36.368V44H180.011V36.488C180.011 35.08 179.667 34 178.979 33.248C178.307 32.496 177.379 32.12 176.195 32.12C174.931 32.12 173.923 32.536 173.171 33.368C172.419 34.2 172.043 35.424 172.043 37.04V44H170.387V36.488C170.387 35.08 170.043 34 169.355 33.248C168.683 32.496 167.755 32.12 166.571 32.12C165.307 32.12 164.299 32.536 163.547 33.368C162.795 34.2 162.419 35.424 162.419 37.04V44H160.715V30.896H162.419V34.016C162.739 32.912 163.315 32.08 164.147 31.52C164.995 30.944 165.971 30.656 167.075 30.656C168.227 30.656 169.219 30.96 170.051 31.568C170.883 32.176 171.459 33.072 171.779 34.256C172.131 33.088 172.747 32.2 173.627 31.592C174.507 30.968 175.507 30.656 176.627 30.656Z" fill="white"/>
</svg>
