<svg width="182" height="52" viewBox="0 0 182 52" fill="none" xmlns="http://www.w3.org/2000/svg">
<g clip-path="url(#clip0)">
<rect width="182" height="52" rx="23" fill="url(#paint0_linear)"/>
<path d="M80.8171 21.448V27.832H87.4171V29.152H80.8171V35.608H88.1371V37H79.1131V20.08H88.1371V21.448H80.8171ZM97.6182 23.656C99.1382 23.656 100.37 24.144 101.314 25.12C102.274 26.08 102.754 27.496 102.754 29.368V37H101.098V29.488C101.098 28.064 100.738 26.976 100.018 26.224C99.2982 25.456 98.3142 25.072 97.0662 25.072C95.7542 25.072 94.7062 25.496 93.9222 26.344C93.1542 27.176 92.7702 28.408 92.7702 30.04V37H91.0662V23.896H92.7702V27.112C93.1062 25.992 93.7142 25.136 94.5942 24.544C95.4742 23.952 96.4822 23.656 97.6182 23.656ZM111.821 23.728C113.149 23.728 114.277 24.072 115.205 24.76C116.149 25.448 116.797 26.36 117.149 27.496V23.896H118.805V37.312C118.805 38.528 118.549 39.592 118.037 40.504C117.525 41.432 116.813 42.144 115.901 42.64C114.989 43.152 113.949 43.408 112.781 43.408C111.069 43.408 109.661 42.992 108.557 42.16C107.469 41.344 106.757 40.232 106.421 38.824H108.101C108.389 39.784 108.917 40.544 109.685 41.104C110.469 41.664 111.469 41.944 112.685 41.944C113.517 41.944 114.269 41.76 114.941 41.392C115.629 41.04 116.165 40.512 116.549 39.808C116.949 39.104 117.149 38.272 117.149 37.312V33.4C116.797 34.536 116.149 35.448 115.205 36.136C114.277 36.824 113.149 37.168 111.821 37.168C110.637 37.168 109.573 36.896 108.629 36.352C107.701 35.808 106.973 35.032 106.445 34.024C105.933 33 105.677 31.808 105.677 30.448C105.677 29.072 105.933 27.88 106.445 26.872C106.973 25.848 107.701 25.072 108.629 24.544C109.557 24 110.621 23.728 111.821 23.728ZM112.253 25.216C110.781 25.216 109.597 25.688 108.701 26.632C107.821 27.56 107.381 28.832 107.381 30.448C107.381 32.064 107.821 33.344 108.701 34.288C109.597 35.216 110.781 35.68 112.253 35.68C113.181 35.68 114.013 35.464 114.749 35.032C115.501 34.6 116.085 33.992 116.501 33.208C116.933 32.408 117.149 31.488 117.149 30.448C117.149 29.408 116.933 28.496 116.501 27.712C116.085 26.912 115.501 26.296 114.749 25.864C114.013 25.432 113.181 25.216 112.253 25.216ZM124.153 19.24V37H122.449V19.24H124.153ZM127.409 20.008C127.409 19.656 127.521 19.376 127.745 19.168C127.985 18.96 128.289 18.856 128.657 18.856C129.025 18.856 129.321 18.96 129.545 19.168C129.769 19.376 129.881 19.656 129.881 20.008C129.881 20.344 129.769 20.616 129.545 20.824C129.321 21.032 129.025 21.136 128.657 21.136C128.289 21.136 127.985 21.032 127.745 20.824C127.521 20.616 127.409 20.344 127.409 20.008ZM129.497 23.896V37H127.793V23.896H129.497ZM137.097 23.728C138.521 23.728 139.665 24.104 140.529 24.856C141.393 25.608 141.921 26.624 142.113 27.904H140.505C140.409 27.056 140.057 26.36 139.449 25.816C138.857 25.256 138.057 24.976 137.049 24.976C136.185 24.976 135.505 25.192 135.009 25.624C134.529 26.04 134.289 26.6 134.289 27.304C134.289 27.832 134.441 28.256 134.745 28.576C135.065 28.896 135.457 29.144 135.921 29.32C136.385 29.48 137.009 29.648 137.793 29.824C138.753 30.048 139.521 30.28 140.097 30.52C140.689 30.744 141.193 31.104 141.609 31.6C142.025 32.096 142.233 32.768 142.233 33.616C142.233 34.656 141.841 35.512 141.057 36.184C140.289 36.84 139.265 37.168 137.985 37.168C136.481 37.168 135.249 36.8 134.289 36.064C133.329 35.312 132.761 34.288 132.585 32.992H134.217C134.313 33.856 134.689 34.56 135.345 35.104C136.001 35.648 136.889 35.92 138.009 35.92C138.841 35.92 139.489 35.704 139.953 35.272C140.417 34.84 140.649 34.28 140.649 33.592C140.649 33.032 140.489 32.584 140.169 32.248C139.849 31.912 139.449 31.664 138.969 31.504C138.505 31.328 137.865 31.144 137.049 30.952C136.105 30.728 135.345 30.504 134.769 30.28C134.209 30.056 133.729 29.712 133.329 29.248C132.929 28.768 132.729 28.12 132.729 27.304C132.729 26.232 133.121 25.368 133.905 24.712C134.689 24.056 135.753 23.728 137.097 23.728ZM151.853 23.656C153.373 23.656 154.605 24.144 155.549 25.12C156.509 26.08 156.989 27.496 156.989 29.368V37H155.333V29.488C155.333 28.064 154.973 26.976 154.253 26.224C153.533 25.456 152.549 25.072 151.301 25.072C149.989 25.072 148.941 25.496 148.157 26.344C147.389 27.176 147.005 28.408 147.005 30.04V37H145.301V19.24H147.005V27.112C147.341 25.992 147.949 25.136 148.829 24.544C149.709 23.952 150.717 23.656 151.853 23.656Z" fill="#0E2842"/>
<circle cx="36.5" cy="28.5" r="17" stroke="black" stroke-opacity="0.5"/>
<path d="M31.2951 29.872H23.5911L22.0551 34H20.2551L26.4951 17.464H28.3911L34.6311 34H32.8071L31.2951 29.872ZM30.7911 28.528L27.4551 19.408L24.0711 28.528H30.7911ZM42.4924 20.728C43.8204 20.728 44.9484 21.072 45.8764 21.76C46.8204 22.448 47.4684 23.36 47.8204 24.496V20.896H49.4764V34H47.8204V30.4C47.4684 31.536 46.8204 32.448 45.8764 33.136C44.9484 33.824 43.8204 34.168 42.4924 34.168C41.3084 34.168 40.2444 33.896 39.3004 33.352C38.3724 32.808 37.6444 32.032 37.1164 31.024C36.6044 30 36.3484 28.808 36.3484 27.448C36.3484 26.072 36.6044 24.88 37.1164 23.872C37.6444 22.848 38.3724 22.072 39.3004 21.544C40.2284 21 41.2924 20.728 42.4924 20.728ZM42.9244 22.216C41.4524 22.216 40.2684 22.688 39.3724 23.632C38.4924 24.56 38.0524 25.832 38.0524 27.448C38.0524 29.064 38.4924 30.344 39.3724 31.288C40.2684 32.216 41.4524 32.68 42.9244 32.68C43.8524 32.68 44.6844 32.464 45.4204 32.032C46.1724 31.6 46.7564 30.992 47.1724 30.208C47.6044 29.408 47.8204 28.488 47.8204 27.448C47.8204 26.408 47.6044 25.496 47.1724 24.712C46.7564 23.912 46.1724 23.296 45.4204 22.864C44.6844 22.432 43.8524 22.216 42.9244 22.216Z" fill="#0E2842"/>
</g>
<defs>
<linearGradient id="paint0_linear" x1="0" y1="26" x2="182" y2="26" gradientUnits="userSpaceOnUse">
<stop stop-color="#0052D4"/>
<stop offset="0.5" stop-color="#4364F7"/>
<stop offset="1" stop-color="#6FB1FC"/>
</linearGradient>
<clipPath id="clip0">
<rect width="182" height="52" rx="23" fill="white"/>
</clipPath>
</defs>
</svg>
