<svg width="267" height="62" viewBox="0 0 267 62" fill="none" xmlns="http://www.w3.org/2000/svg">
<rect width="267" height="62" rx="23" fill="#213951"/>
<path d="M40.8304 26.912C42.8624 26.912 44.5424 27.408 45.8704 28.4C47.1984 29.376 48.1344 30.728 48.6784 32.456H46.9024C46.4544 31.24 45.7104 30.272 44.6704 29.552C43.6304 28.832 42.3424 28.472 40.8064 28.472C39.6384 28.472 38.5744 28.76 37.6144 29.336C36.6704 29.912 35.9264 30.736 35.3824 31.808C34.8384 32.88 34.5664 34.128 34.5664 35.552C34.5664 36.976 34.8384 38.224 35.3824 39.296C35.9264 40.352 36.6704 41.168 37.6144 41.744C38.5744 42.32 39.6384 42.608 40.8064 42.608C42.3424 42.608 43.6304 42.248 44.6704 41.528C45.7104 40.808 46.4544 39.84 46.9024 38.624H48.6784C48.1344 40.352 47.1984 41.712 45.8704 42.704C44.5424 43.68 42.8624 44.168 40.8304 44.168C39.2784 44.168 37.8944 43.8 36.6784 43.064C35.4624 42.328 34.5184 41.312 33.8464 40.016C33.1744 38.704 32.8384 37.216 32.8384 35.552C32.8384 33.872 33.1744 32.376 33.8464 31.064C34.5184 29.752 35.4624 28.736 36.6784 28.016C37.8944 27.28 39.2784 26.912 40.8304 26.912ZM57.67 30.728C58.918 30.728 60.03 31 61.006 31.544C61.998 32.072 62.774 32.848 63.334 33.872C63.894 34.88 64.174 36.072 64.174 37.448C64.174 38.824 63.894 40.016 63.334 41.024C62.774 42.032 61.998 42.808 61.006 43.352C60.03 43.896 58.918 44.168 57.67 44.168C56.422 44.168 55.302 43.896 54.31 43.352C53.318 42.808 52.534 42.032 51.958 41.024C51.398 40 51.118 38.808 51.118 37.448C51.118 36.072 51.398 34.88 51.958 33.872C52.534 32.848 53.318 32.072 54.31 31.544C55.302 31 56.422 30.728 57.67 30.728ZM57.67 32.192C56.806 32.192 56.006 32.384 55.27 32.768C54.534 33.152 53.942 33.744 53.494 34.544C53.046 35.328 52.822 36.296 52.822 37.448C52.822 38.6 53.046 39.568 53.494 40.352C53.942 41.136 54.534 41.72 55.27 42.104C56.006 42.488 56.806 42.68 57.67 42.68C58.518 42.68 59.302 42.488 60.022 42.104C60.758 41.72 61.35 41.136 61.798 40.352C62.246 39.568 62.47 38.6 62.47 37.448C62.47 36.296 62.246 35.328 61.798 34.544C61.35 33.744 60.758 33.152 60.022 32.768C59.302 32.384 58.518 32.192 57.67 32.192ZM73.7393 30.656C75.2593 30.656 76.4913 31.144 77.4353 32.12C78.3953 33.08 78.8753 34.496 78.8753 36.368V44H77.2193V36.488C77.2193 35.064 76.8593 33.976 76.1393 33.224C75.4193 32.456 74.4353 32.072 73.1873 32.072C71.8753 32.072 70.8273 32.496 70.0433 33.344C69.2753 34.176 68.8913 35.408 68.8913 37.04V44H67.1873V30.896H68.8913V34.112C69.2273 32.992 69.8353 32.136 70.7153 31.544C71.5953 30.952 72.6033 30.656 73.7393 30.656ZM87.9417 27.416C86.7257 27.4 85.8697 27.624 85.3737 28.088C84.8937 28.536 84.6537 29.296 84.6537 30.368V30.896H87.9417V32.384H84.6537V44H82.9737V32.384H81.0297V30.896H82.9737V30.248C82.9737 28.776 83.3737 27.672 84.1737 26.936C84.9737 26.2 86.2297 25.864 87.9417 25.928V27.416ZM90.0767 27.008C90.0767 26.656 90.1887 26.376 90.4127 26.168C90.6527 25.96 90.9567 25.856 91.3247 25.856C91.6927 25.856 91.9887 25.96 92.2127 26.168C92.4367 26.376 92.5487 26.656 92.5487 27.008C92.5487 27.344 92.4367 27.616 92.2127 27.824C91.9887 28.032 91.6927 28.136 91.3247 28.136C90.9567 28.136 90.6527 28.032 90.4127 27.824C90.1887 27.616 90.0767 27.344 90.0767 27.008ZM92.1647 30.896V44H90.4607V30.896H92.1647ZM97.5085 33.608C97.8925 32.664 98.5085 31.936 99.3565 31.424C100.204 30.912 101.236 30.656 102.452 30.656V32.48H101.9C100.636 32.48 99.5885 32.824 98.7565 33.512C97.9245 34.184 97.5085 35.288 97.5085 36.824V44H95.8045V30.896H97.5085V33.608ZM120.599 30.656C122.103 30.656 123.319 31.144 124.247 32.12C125.191 33.08 125.663 34.496 125.663 36.368V44H123.983V36.488C123.983 35.08 123.639 34 122.951 33.248C122.279 32.496 121.351 32.12 120.167 32.12C118.903 32.12 117.895 32.536 117.143 33.368C116.391 34.2 116.015 35.424 116.015 37.04V44H114.359V36.488C114.359 35.08 114.015 34 113.327 33.248C112.655 32.496 111.727 32.12 110.543 32.12C109.279 32.12 108.271 32.536 107.519 33.368C106.767 34.2 106.391 35.424 106.391 37.04V44H104.687V30.896H106.391V34.016C106.711 32.912 107.287 32.08 108.119 31.52C108.967 30.944 109.943 30.656 111.047 30.656C112.199 30.656 113.191 30.96 114.023 31.568C114.855 32.176 115.431 33.072 115.751 34.256C116.103 33.088 116.719 32.2 117.599 31.592C118.479 30.968 119.479 30.656 120.599 30.656ZM135.947 21.44L129.347 48.008H127.715L134.291 21.44H135.947ZM158.745 27.536H155.385V44H153.849V36.776C153.465 37.496 152.921 38.056 152.217 38.456C151.513 38.84 150.673 39.032 149.697 39.032C148.033 39.032 146.769 38.512 145.905 37.472C145.041 36.416 144.609 34.976 144.609 33.152V27.536H141.777V26.24H158.745V27.536ZM153.849 27.536H146.145V33.152C146.145 34.592 146.465 35.712 147.105 36.512C147.745 37.312 148.721 37.712 150.033 37.712C151.217 37.712 152.145 37.336 152.817 36.584C153.505 35.832 153.849 34.896 153.849 33.776V27.536ZM153.403 50.936C151.819 50.936 150.523 50.528 149.515 49.712C148.507 48.896 148.035 47.68 148.099 46.064H149.467C149.403 47.28 149.739 48.192 150.475 48.8C151.211 49.408 152.179 49.712 153.379 49.712C154.387 49.712 155.195 49.472 155.803 48.992C156.395 48.528 156.691 47.864 156.691 47C156.691 46.344 156.483 45.784 156.067 45.32C155.635 44.856 155.067 44.624 154.363 44.624H153.835V43.4H154.363C155.515 43.4 156.419 43.736 157.075 44.408C157.715 45.096 158.035 45.96 158.035 47C158.035 48.232 157.627 49.192 156.811 49.88C155.979 50.584 154.843 50.936 153.403 50.936ZM174.451 27.536H171.067V44H169.555V36.848C169.171 37.568 168.619 38.128 167.899 38.528C167.195 38.928 166.347 39.128 165.355 39.128C163.675 39.128 162.395 38.6 161.515 37.544C160.635 36.472 160.195 35.008 160.195 33.152V27.536H157.363V26.24H174.451V27.536ZM169.555 27.536H161.683L169.555 34.112V33.8V27.536ZM165.643 37.808C166.587 37.808 167.371 37.576 167.995 37.112C168.635 36.632 169.083 36.008 169.339 35.24L161.683 28.808V33.176C161.683 34.648 162.011 35.792 162.667 36.608C163.323 37.408 164.315 37.808 165.643 37.808ZM169.634 45.488H171.17L174.098 50.12H172.49L169.634 45.488ZM182.546 31.88C180.93 31.88 179.61 32.304 178.586 33.152C177.578 33.984 177.074 35.2 177.074 36.8C177.074 37.696 177.282 38.504 177.698 39.224C178.114 39.928 178.69 40.48 179.426 40.88C180.162 41.28 180.986 41.48 181.898 41.48C182.842 41.48 183.674 41.272 184.394 40.856C185.13 40.44 185.698 39.864 186.098 39.128C186.514 38.392 186.722 37.552 186.722 36.608H188.21C188.21 37.824 187.946 38.904 187.418 39.848C186.906 40.792 186.17 41.528 185.21 42.056C184.266 42.568 183.17 42.824 181.922 42.824C180.706 42.824 179.61 42.576 178.634 42.08C177.674 41.568 176.914 40.856 176.354 39.944C175.81 39.016 175.538 37.968 175.538 36.8C175.538 35.456 175.834 34.32 176.426 33.392C177.018 32.448 177.834 31.744 178.874 31.28C179.914 30.8 181.114 30.56 182.474 30.56H183.242V27.536H173.066V26.24H190.082V27.536H184.73V31.88H182.546ZM201.107 20.312C202.691 20.312 204.163 20.52 205.523 20.936C206.883 21.352 207.987 22 208.835 22.88C209.683 23.76 210.107 24.872 210.107 26.216V26.624H208.571V26.24C208.571 25.12 208.195 24.216 207.443 23.528C206.691 22.824 205.747 22.328 204.611 22.04C203.491 21.736 202.323 21.584 201.107 21.584C199.043 21.584 197.275 21.928 195.803 22.616C194.347 23.288 193.611 24.496 193.595 26.24H196.979V27.536H193.619V44H192.083V27.536H188.699V26.24H192.083C192.099 24.16 192.963 22.656 194.675 21.728C196.403 20.784 198.547 20.312 201.107 20.312ZM215.408 27.536V33.176C215.76 32.344 216.296 31.68 217.016 31.184C217.752 30.672 218.664 30.416 219.752 30.416C220.712 30.416 221.568 30.648 222.32 31.112C223.088 31.56 223.688 32.192 224.12 33.008C224.568 33.824 224.792 34.768 224.792 35.84C224.792 36.976 224.576 37.968 224.144 38.816C223.712 39.648 223.112 40.288 222.344 40.736C221.592 41.168 220.736 41.384 219.776 41.384C219.28 41.384 218.792 41.328 218.312 41.216V39.968C218.6 40.048 218.976 40.088 219.44 40.088C220.544 40.088 221.456 39.712 222.176 38.96C222.896 38.208 223.256 37.176 223.256 35.864C223.256 35.032 223.08 34.304 222.728 33.68C222.392 33.056 221.92 32.576 221.312 32.24C220.72 31.904 220.064 31.736 219.344 31.736C218.464 31.736 217.728 31.952 217.136 32.384C216.544 32.8 216.104 33.344 215.816 34.016C215.544 34.672 215.408 35.36 215.408 36.08V44H213.944V38.72C213.592 39.536 213.032 40.2 212.264 40.712C211.496 41.208 210.56 41.456 209.456 41.456C208.464 41.456 207.576 41.232 206.792 40.784C206.008 40.32 205.392 39.672 204.944 38.84C204.512 37.992 204.296 37 204.296 35.864C204.296 34.776 204.52 33.824 204.968 33.008C205.416 32.176 206.032 31.536 206.816 31.088C207.616 30.64 208.512 30.416 209.504 30.416C210.608 30.416 211.528 30.664 212.264 31.16C213.016 31.656 213.576 32.304 213.944 33.104V27.536H201.824V26.24H227.264V27.536H215.408ZM209.888 40.136C210.784 40.136 211.536 39.928 212.144 39.512C212.752 39.096 213.2 38.568 213.488 37.928C213.792 37.272 213.944 36.616 213.944 35.96V35.936C213.944 35.232 213.8 34.56 213.512 33.92C213.224 33.28 212.776 32.76 212.168 32.36C211.56 31.944 210.8 31.736 209.888 31.736C209.152 31.736 208.472 31.904 207.848 32.24C207.24 32.576 206.752 33.056 206.384 33.68C206.032 34.304 205.856 35.032 205.856 35.864C205.856 37.192 206.232 38.24 206.984 39.008C207.752 39.76 208.72 40.136 209.888 40.136ZM230.19 35.624V39.128C230.19 40.264 230.446 41.176 230.958 41.864C231.486 42.552 232.254 42.896 233.262 42.896C234.206 42.896 234.95 42.584 235.494 41.96C236.054 41.32 236.334 40.472 236.334 39.416V39.032H237.822V39.368C237.822 40.856 237.414 42.04 236.598 42.92C235.782 43.784 234.678 44.216 233.286 44.216C231.798 44.216 230.654 43.744 229.854 42.8C229.07 41.856 228.678 40.608 228.678 39.056V34.352H231.246C232.638 34.352 233.694 34 234.414 33.296C235.15 32.576 235.518 31.504 235.518 30.08V27.536H225.87V26.24H240.126V27.536H237.054V30.08C237.054 31.888 236.598 33.264 235.686 34.208C234.79 35.152 233.462 35.624 231.702 35.624H230.19ZM235.282 26.312C234.402 24.92 233.682 23.92 233.122 23.312C232.546 22.688 232.002 22.288 231.49 22.112C230.962 21.936 230.25 21.848 229.354 21.848H228.418V20.576H229.33C230.466 20.576 231.362 20.688 232.018 20.912C232.674 21.136 233.362 21.648 234.082 22.448C234.802 23.248 235.69 24.536 236.746 26.312H235.282ZM235.978 23.816C235.658 23.816 235.394 23.712 235.186 23.504C234.962 23.296 234.85 23.032 234.85 22.712C234.85 22.392 234.962 22.128 235.186 21.92C235.394 21.696 235.658 21.584 235.978 21.584C236.298 21.584 236.57 21.696 236.794 21.92C237.002 22.128 237.106 22.392 237.106 22.712C237.106 23.032 237.002 23.296 236.794 23.504C236.57 23.712 236.298 23.816 235.978 23.816Z" fill="white"/>
</svg>
