<svg width="158" height="52" viewBox="0 0 158 52" fill="none" xmlns="http://www.w3.org/2000/svg">
<g clip-path="url(#clip0)">
<rect width="158" height="52" rx="23" fill="url(#paint0_linear)"/>
<path d="M88.9271 13.312C90.2231 13.312 91.4231 13.52 92.5271 13.936C93.6471 14.352 94.5431 15 95.2151 15.88C95.9031 16.76 96.2471 17.872 96.2471 19.216V19.624H94.7591V19.24C94.7591 18.12 94.4631 17.216 93.8711 16.528C93.2791 15.824 92.5431 15.328 91.6631 15.04C90.7831 14.736 89.8711 14.584 88.9271 14.584C87.3271 14.584 85.9511 14.928 84.7991 15.616C83.6631 16.288 83.0871 17.496 83.0711 19.24H86.4551V20.536H83.0951V37H81.5591V20.536H78.1751V19.24H81.5591C81.5751 17.16 82.2791 15.656 83.6711 14.728C85.0791 13.784 86.8311 13.312 88.9271 13.312ZM92.6017 24.784C91.7537 24.784 91.0657 24.952 90.5377 25.288C90.0097 25.624 89.7457 26.168 89.7457 26.92C89.7457 27.48 89.9217 27.952 90.2737 28.336C90.6417 28.72 91.1297 29 91.7377 29.176C92.1697 29.08 92.6417 29.032 93.1537 29.032C94.6737 29.032 95.8657 29.408 96.7297 30.16C97.6097 30.896 98.1537 31.792 98.3617 32.848H96.8737C96.7297 32.176 96.3297 31.584 95.6737 31.072C95.0337 30.544 94.1857 30.28 93.1297 30.28C91.8817 30.28 90.9057 30.656 90.2017 31.408C89.5137 32.16 89.1697 33.096 89.1697 34.216C89.1697 35.352 89.5137 36.288 90.2017 37.024C90.9057 37.776 91.8817 38.152 93.1297 38.152C94.1377 38.152 94.9617 37.896 95.6017 37.384C96.2577 36.872 96.6817 36.28 96.8737 35.608H98.3617C98.2337 36.28 97.9457 36.904 97.4977 37.48C97.0497 38.072 96.4577 38.544 95.7217 38.896C94.9857 39.264 94.1217 39.448 93.1297 39.448C91.9777 39.448 90.9857 39.216 90.1537 38.752C89.3377 38.288 88.7137 37.656 88.2817 36.856C87.8657 36.056 87.6577 35.168 87.6577 34.192C87.6577 33.168 87.8897 32.256 88.3537 31.456C88.8337 30.656 89.5057 30.048 90.3697 29.632C89.7297 29.36 89.2097 28.984 88.8097 28.504C88.4257 28.008 88.2337 27.392 88.2337 26.656C88.2337 25.664 88.5937 24.912 89.3137 24.4C90.0337 23.888 90.9777 23.632 92.1457 23.632H95.5777V20.536H85.0657V19.24H100.522V20.536H97.0657V24.784H92.6017ZM119.936 24.688C118.512 24.688 117.328 25.064 116.384 25.816C115.456 26.568 114.992 27.632 114.992 29.008C114.992 30.272 115.368 31.28 116.12 32.032C116.888 32.784 117.904 33.16 119.168 33.16C119.76 33.16 120.336 33.032 120.896 32.776C121.472 32.52 121.944 32.128 122.312 31.6C122.696 31.056 122.888 30.392 122.888 29.608H124.304V37.264H122.792V32.32C122.472 32.944 121.944 33.448 121.208 33.832C120.488 34.216 119.672 34.408 118.76 34.408C117.72 34.408 116.792 34.192 115.976 33.76C115.176 33.312 114.552 32.68 114.104 31.864C113.656 31.048 113.432 30.088 113.432 28.984C113.432 27.928 113.664 26.976 114.128 26.128H109.112C109.592 26.496 109.976 26.976 110.264 27.568C110.568 28.144 110.72 28.8 110.72 29.536C110.72 30.4 110.52 31.168 110.12 31.84C109.736 32.496 109.192 33 108.488 33.352C107.8 33.704 107.024 33.88 106.16 33.88C105.248 33.88 104.432 33.696 103.712 33.328C103.008 32.944 102.448 32.416 102.032 31.744C101.632 31.072 101.432 30.288 101.432 29.392C101.432 28.464 101.64 27.664 102.056 26.992C102.472 26.304 103.048 25.776 103.784 25.408C104.52 25.04 105.36 24.856 106.304 24.856H115.184C115.76 24.36 116.448 23.984 117.248 23.728C118.048 23.472 118.904 23.344 119.816 23.344H121.784V20.536H99.1282V19.24H126.968L126.944 20.536H123.32V24.688H119.936ZM106.184 32.56C107.128 32.56 107.904 32.264 108.512 31.672C109.136 31.064 109.448 30.288 109.448 29.344C109.448 28.416 109.136 27.656 108.512 27.064C107.904 26.456 107.128 26.152 106.184 26.152C105.192 26.152 104.384 26.456 103.76 27.064C103.136 27.656 102.824 28.432 102.824 29.392C102.824 30.336 103.128 31.104 103.736 31.696C104.36 32.272 105.176 32.56 106.184 32.56ZM133.822 19.24V20.536H130.462V37H128.926V20.536H125.542V19.24H128.95V18.208C128.95 17.168 128.742 16.312 128.326 15.64C127.926 14.968 127.238 14.632 126.262 14.632C125.286 14.632 124.59 14.968 124.174 15.64C123.742 16.312 123.526 17.168 123.526 18.208V19.6H122.014V18.256C122.014 16.768 122.358 15.576 123.046 14.68C123.734 13.768 124.806 13.312 126.262 13.312C127.734 13.312 128.798 13.76 129.454 14.656C130.126 15.552 130.462 16.752 130.462 18.256V19.24H133.822Z" fill="#0E2842"/>
<path d="M46.0697 19.24V20.536H42.7097V37H41.1737V28.744L36.8297 28.72C37.2937 29.456 37.5257 30.272 37.5257 31.168C37.5257 32.544 37.0857 33.656 36.2057 34.504C35.3257 35.336 34.1577 35.752 32.7017 35.752C31.6937 35.752 30.7897 35.552 29.9897 35.152C29.1897 34.736 28.5657 34.168 28.1177 33.448C27.6697 32.712 27.4457 31.872 27.4457 30.928H28.9097C28.9097 31.952 29.2537 32.792 29.9417 33.448C30.6297 34.104 31.5177 34.432 32.6057 34.432C33.6777 34.432 34.5257 34.12 35.1497 33.496C35.7897 32.872 36.1097 32.048 36.1097 31.024C36.1097 30.608 36.0377 30.2 35.8937 29.8C35.7497 29.384 35.5337 29.024 35.2457 28.72H35.2217V28.672C34.5497 28 33.6217 27.664 32.4377 27.664H31.5497V26.416H32.4377C33.1737 26.416 33.7977 26.28 34.3097 26.008C34.8217 25.72 35.2057 25.352 35.4617 24.904C35.7177 24.456 35.8457 23.984 35.8457 23.488C35.8457 22.512 35.5257 21.744 34.8857 21.184C34.2617 20.624 33.4777 20.344 32.5337 20.344C31.5417 20.344 30.7097 20.624 30.0377 21.184C29.3817 21.728 29.0617 22.456 29.0777 23.368H27.6617C27.6617 22.04 28.1177 20.984 29.0297 20.2C29.9417 19.416 31.1097 19.024 32.5337 19.024C33.9097 19.024 35.0297 19.408 35.8937 20.176C36.7737 20.944 37.2137 21.968 37.2137 23.248C37.2137 24.192 36.9577 25 36.4457 25.672C35.9337 26.328 35.1897 26.768 34.2137 26.992V27.016C34.6777 27.08 35.1017 27.224 35.4857 27.448H41.1737V19.24H46.0697Z" fill="#0E2842"/>
<circle cx="36.5" cy="28.5" r="17" stroke="black" stroke-opacity="0.5"/>
</g>
<defs>
<linearGradient id="paint0_linear" x1="0" y1="26" x2="158" y2="26" gradientUnits="userSpaceOnUse">
<stop stop-color="#0052D4"/>
<stop offset="0.5" stop-color="#4364F7"/>
<stop offset="1" stop-color="#6FB1FC"/>
</linearGradient>
<clipPath id="clip0">
<rect width="158" height="52" rx="23" fill="white"/>
</clipPath>
</defs>
</svg>
