<svg width="412" height="684" viewBox="0 0 412 684" fill="none" xmlns="http://www.w3.org/2000/svg">
<path d="M412.301 683.143L-20 683.143L-20 133.368C-20 118.414 -13.994 104.071 -3.30311 93.4966C7.38772 82.922 21.8876 76.9813 37.0068 76.9813L412.301 76.9813L412.301 683.143Z" fill="#123656"/>
<path opacity="0.36" d="M-15.2494 97.646L-15.2494 306.524C40.9961 189.575 154.583 116.922 281.186 116.922C326.398 116.852 371.102 126.345 412.301 144.763L412.301 136.775C352.302 73.7766 268.723 34.6909 176.293 34.6909C107.254 34.703 40.0675 56.7854 -15.2494 97.646H-15.2494Z" fill="url(#paint0_linear)"/>
<path opacity="0.15" d="M-15.2494 128.189L-15.2494 337.067C40.9961 220.118 154.583 147.465 281.186 147.465C326.398 147.395 371.102 156.888 412.301 175.306L412.301 167.318C352.302 104.32 268.723 65.2339 176.293 65.2339C107.254 65.246 40.0675 87.3285 -15.2494 128.189H-15.2494Z" fill="url(#paint1_linear)"/>
<path d="M412.301 63.5786L412.301 272.457C356.056 155.508 242.469 82.8548 115.866 82.8548C70.6542 82.7847 25.9497 92.2773 -15.2495 110.696L-15.2495 102.708C44.7501 39.7093 128.329 0.623605 220.759 0.623605C289.798 0.63569 356.984 22.7181 412.301 63.5786Z" fill="url(#paint2_linear)"/>
<defs>
<linearGradient id="paint0_linear" x1="198.526" y1="34.6909" x2="198.526" y2="306.524" gradientUnits="userSpaceOnUse">
<stop stop-color="#554FFF"/>
<stop offset="1" stop-color="#00F0E8"/>
</linearGradient>
<linearGradient id="paint1_linear" x1="198.526" y1="65.2339" x2="198.526" y2="337.067" gradientUnits="userSpaceOnUse">
<stop stop-color="#554FFF"/>
<stop offset="1" stop-color="#00F0E8"/>
</linearGradient>
<linearGradient id="paint2_linear" x1="198.526" y1="272.457" x2="198.526" y2="0.623605" gradientUnits="userSpaceOnUse">
<stop stop-color="#554FFF"/>
<stop offset="1" stop-color="#00F0E8"/>
</linearGradient>
</defs>
</svg>
