<svg width="123" height="123" viewBox="0 0 123 123" fill="none" xmlns="http://www.w3.org/2000/svg">
<g id="24 / basic / camera-create">
<path id="icon" fill-rule="evenodd" clip-rule="evenodd" d="M35.5522 29.9576C35.9153 29.4528 36.3186 28.8348 36.8328 28.0016C37.0208 27.697 37.5334 26.8514 37.9148 26.2219L37.9151 26.2216C38.1184 25.8861 38.2845 25.6121 38.3442 25.5144C42.5928 18.5647 45.6811 15.375 51.25 15.375H76.875V25.625H51.25C50.8055 25.625 49.4076 27.0688 47.0895 30.8606C47.0417 30.9389 46.899 31.1743 46.7168 31.4749C46.3322 32.1096 45.7714 33.0348 45.5555 33.3847C44.9253 34.4058 44.4017 35.2081 43.8731 35.9429C41.5759 39.1366 39.2798 41 35.875 41H20.5C17.6695 41 15.375 43.2945 15.375 46.125V92.25C15.375 95.0805 17.6695 97.375 20.5 97.375H102.5C105.33 97.375 107.625 95.0805 107.625 92.25V61.5H117.875V92.25C117.875 100.741 110.991 107.625 102.5 107.625H20.5C12.0086 107.625 5.125 100.741 5.125 92.25V46.125C5.125 37.6336 12.0086 30.75 20.5 30.75H34.933C35.1036 30.5549 35.3128 30.2904 35.5522 29.9576ZM87.125 41V30.75H97.375V20.5H107.625V30.75H117.875V41H107.625V51.25H97.375V41H87.125ZM61.5 92.25C47.3477 92.25 35.875 80.7773 35.875 66.625C35.875 52.4727 47.3477 41 61.5 41C75.6523 41 87.125 52.4727 87.125 66.625C87.125 80.7773 75.6523 92.25 61.5 92.25ZM61.5 82C69.9914 82 76.875 75.1164 76.875 66.625C76.875 58.1336 69.9914 51.25 61.5 51.25C53.0086 51.25 46.125 58.1336 46.125 66.625C46.125 75.1164 53.0086 82 61.5 82Z" fill="#FFF9F9"/>
</g>
</svg>
